<svg width="500" height="500" viewBox="0 0 500 500" fill="none" xmlns="http://www.w3.org/2000/svg">
<g clip-path="url(#clip0_223_2)">
<path d="M155.575 190.108C152.985 188.18 152.185 184.27 153.174 178.378C153.84 174.432 152.14 170.757 148.077 167.351" stroke="#D5B8AA" stroke-width="2"/>
<path d="M344.479 158.405C341.423 165.919 340.506 175.514 341.728 187.189" stroke="#D5B8AA" stroke-width="2"/>
<path d="M254.155 146.144C269.748 143.473 280.299 129.058 277.721 113.948C275.144 98.8371 260.414 88.7529 244.821 91.4238C229.228 94.0947 218.676 108.509 221.254 123.62C223.831 138.73 238.562 148.815 254.155 146.144Z" fill="#D9A187"/>
<path d="M155.575 190.108C152.985 188.18 152.185 184.27 153.174 178.378C153.84 174.432 152.14 170.757 148.077 167.351L174.508 143.919C178.338 140.532 182.725 139.477 187.67 140.757C188.731 141.045 189.747 141.495 190.718 142.108C195.177 144.937 195.312 147.964 191.122 151.189C185.459 155.568 180.226 160.108 175.587 165.757C169.024 173.793 162.353 181.91 155.575 190.108Z" fill="#E8DBD1"/>
<path d="M344.479 158.405C341.423 165.919 340.506 175.514 341.728 187.189C331.605 176.541 322.723 168.09 315.081 161.838C310.856 158.36 308.5 154.694 308.015 150.838C306.801 141.108 315.054 138.243 322.552 142.378C331.021 147.027 338.33 152.369 344.479 158.405Z" fill="#E8DBD1"/>
<path d="M344.479 158.405C375.478 186.153 389.314 221.414 385.987 264.189C385.448 271.324 384.585 277.595 383.398 283C378.436 305.703 368.591 325.784 349.765 339.351C348.848 340.036 347.878 340.613 346.853 341.081C346.28 341.338 345.648 341.431 345.026 341.347C344.405 341.264 343.818 341.009 343.334 340.61C342.849 340.211 342.485 339.685 342.282 339.09C342.079 338.495 342.046 337.856 342.187 337.243C345.099 324.811 348.741 313.351 354.324 301.676C368.277 272.505 369.041 241.964 356.616 210.054C355.124 206.216 350.161 198.595 341.728 187.189C340.505 175.514 341.422 165.919 344.479 158.405Z" fill="#C29582"/>
<path d="M221.411 219.622C220.521 233.73 232.199 241.405 244.687 243.108C252.239 244.135 259.71 245.243 267.1 246.432C272.098 247.225 276.638 248.396 280.72 249.946C318.533 264.216 330.266 308.595 304.778 339.865C293.45 353.784 279.506 359.351 262.757 362.811C252.94 364.847 242.178 364.532 230.473 361.865C217.392 358.865 185.701 349.243 183.382 333.811C180.712 315.892 201.884 307.595 215.504 316.243C227.012 323.523 238.591 327.378 250.243 327.811C264.888 328.351 279.83 316.541 277.942 300.946C276.485 288.946 264.133 283.405 253.048 282.27C244.255 281.369 235.669 279.973 227.29 278.081C181.359 267.757 164.826 214.973 197.919 180.865C207.916 170.559 222.544 164.496 241.801 162.676C257.264 161.198 273.276 163.487 289.836 169.541C302.324 174.081 317.805 187.189 307.151 202.135C294.017 220.541 278.643 203.676 263.944 200.649C256.266 199.081 249.002 198.685 242.151 199.46C231.902 200.622 222.112 208.865 221.411 219.622Z" fill="#142831"/>
<path d="M148.077 167.351C152.14 170.757 153.84 174.432 153.174 178.378C152.185 184.27 152.986 188.18 155.575 190.108C137.073 216.162 130.896 244.468 137.046 275.027C140.956 294.432 151.313 312.919 159.297 331.351C160.232 333.495 161.041 335.721 161.724 338.027C161.97 338.831 161.977 339.69 161.746 340.499C161.514 341.307 161.054 342.031 160.421 342.583C159.787 343.135 159.007 343.491 158.176 343.609C157.345 343.726 156.497 343.599 155.737 343.243C142.629 337.081 128.442 318.892 123.264 305.649C109.958 271.577 109.364 238.315 121.483 205.865C126.536 192.333 135.4 179.495 148.077 167.351Z" fill="#C29582"/>
</g>
<defs>
<clipPath id="clip0_223_2">
<rect width="500" height="500" fill="white"/>
</clipPath>
</defs>
</svg>
