<svg width="500" height="500" viewBox="0 0 500 500" fill="none" xmlns="http://www.w3.org/2000/svg">
<g clip-path="url(#clip0_223_2)">
<path d="M87.0074 183.507C82.538 180.175 81.1568 173.419 82.8639 163.238C84.0123 156.419 81.0793 150.068 74.0648 144.183" stroke="#D5B8AA" stroke-width="2"/>
<path d="M413.086 128.725C407.809 141.708 406.226 158.287 408.337 178.463" stroke="#D5B8AA" stroke-width="2"/>
<path d="M257.171 107.536C284.087 102.921 302.3 78.0124 297.851 51.9016C293.402 25.7907 267.975 8.36505 241.059 12.9804C214.144 17.5957 195.931 42.5042 200.38 68.6151C204.829 94.726 230.256 112.152 257.171 107.536Z" fill="#D9A187"/>
<path d="M87.0074 183.507C82.538 180.175 81.1568 173.419 82.8639 163.238C84.0123 156.419 81.0793 150.068 74.0648 144.183L119.69 103.692C126.301 97.8385 133.874 96.0171 142.409 98.2277C144.24 98.7259 145.994 99.5043 147.67 100.563C155.367 105.451 155.6 110.682 148.368 116.255C138.591 123.821 129.56 131.667 121.552 141.428C110.223 155.314 98.7085 169.34 87.0074 183.507Z" fill="#E8DBD1"/>
<path d="M413.086 128.724C407.809 141.708 406.226 158.287 408.337 178.463C390.863 160.062 375.531 145.46 362.34 134.656C355.046 128.647 350.98 122.311 350.142 115.648C348.047 98.8348 362.293 93.8843 375.236 101.03C389.854 109.063 402.471 118.294 413.086 128.724Z" fill="#E8DBD1"/>
<path d="M413.086 128.725C466.594 176.673 490.477 237.604 484.735 311.519C483.804 323.849 482.314 334.684 480.266 344.024C471.7 383.254 454.707 417.954 422.211 441.399C420.628 442.582 418.952 443.579 417.183 444.388C416.195 444.833 415.103 444.992 414.03 444.848C412.957 444.704 411.945 444.263 411.108 443.574C410.272 442.885 409.643 441.976 409.293 440.948C408.943 439.92 408.886 438.815 409.128 437.756C414.156 416.273 420.441 396.471 430.079 376.296C454.164 325.888 455.483 273.114 434.036 217.973C431.46 211.342 422.893 198.172 408.337 178.463C406.226 158.287 407.809 141.708 413.086 128.725Z" fill="#C29582"/>
<path d="M200.651 234.506C199.114 258.885 219.273 272.149 240.828 275.091C253.864 276.865 266.76 278.78 279.516 280.835C288.145 282.205 295.982 284.229 303.027 286.907C368.299 311.566 388.551 388.251 344.555 442.286C325.002 466.338 300.932 475.959 272.021 481.937C255.075 485.455 236.499 484.91 216.293 480.302C193.714 475.118 139.01 458.492 135.007 431.825C130.398 400.861 166.944 386.523 190.455 401.468C210.319 414.047 230.307 420.71 250.419 421.457C275.699 422.391 301.491 401.982 298.232 375.035C295.718 354.299 274.395 344.725 255.261 342.763C240.084 341.206 225.263 338.793 210.8 335.524C131.515 317.684 102.976 226.473 160.1 167.534C177.357 149.725 202.606 139.248 235.847 136.104C262.539 133.55 290.178 137.505 318.763 147.966C340.319 155.812 367.042 178.463 348.652 204.29C325.979 236.094 299.442 206.952 274.069 201.721C260.817 199.012 248.277 198.327 236.452 199.666C218.761 201.674 201.861 215.918 200.651 234.506Z" fill="#142831"/>
<path d="M74.0649 144.183C81.0793 150.068 84.0124 156.419 82.864 163.238C81.1569 173.419 82.5381 180.175 87.0075 183.507C55.07 228.528 44.4087 277.442 55.0235 330.247C61.7741 363.779 79.6516 395.724 93.4322 427.575C95.0462 431.28 96.4428 435.125 97.6222 439.111C98.046 440.501 98.059 441.984 97.6597 443.382C97.2603 444.779 96.4658 446.03 95.3722 446.984C94.2786 447.938 92.9328 448.553 91.4978 448.756C90.0628 448.958 88.6002 448.739 87.2868 448.124C64.6606 437.476 40.1721 406.045 31.2334 383.161C8.26574 324.284 7.24149 266.809 28.1607 210.734C36.8822 187.352 52.1836 165.168 74.0649 144.183Z" fill="#C29582"/>
</g>
<defs>
<clipPath id="clip0_223_2">
<rect width="500" height="500" fill="white"/>
</clipPath>
</defs>
</svg>
